%TF.GenerationSoftware,KiCad,Pcbnew,(5.1.10)-1*%
%TF.CreationDate,2021-11-28T11:57:09+01:00*%
%TF.ProjectId,vertex,76657274-6578-42e6-9b69-6361645f7063,rev?*%
%TF.SameCoordinates,Original*%
%TF.FileFunction,Soldermask,Top*%
%TF.FilePolarity,Negative*%
%FSLAX46Y46*%
G04 Gerber Fmt 4.6, Leading zero omitted, Abs format (unit mm)*
G04 Created by KiCad (PCBNEW (5.1.10)-1) date 2021-11-28 11:57:09*
%MOMM*%
%LPD*%
G01*
G04 APERTURE LIST*
%ADD10C,3.987800*%
%ADD11C,1.750000*%
%ADD12C,3.048000*%
%ADD13O,1.000000X2.100000*%
%ADD14C,0.650000*%
%ADD15O,1.000000X1.600000*%
G04 APERTURE END LIST*
D10*
%TO.C,MX60*%
X254793750Y-65881250D03*
D11*
X249713750Y-65881250D03*
X259873750Y-65881250D03*
D12*
X242887500Y-58896250D03*
X266700000Y-58896250D03*
D10*
X242887500Y-74136250D03*
X266700000Y-74136250D03*
%TD*%
%TO.C,MX67*%
X264318750Y-103981250D03*
D11*
X259238750Y-103981250D03*
X269398750Y-103981250D03*
%TD*%
D10*
%TO.C,MX66*%
X242887500Y-103981250D03*
D11*
X237807500Y-103981250D03*
X247967500Y-103981250D03*
%TD*%
D10*
%TO.C,MX55*%
X123825000Y-123031250D03*
D11*
X118745000Y-123031250D03*
X128905000Y-123031250D03*
D12*
X111918750Y-130016250D03*
X135731250Y-130016250D03*
D10*
X111918750Y-114776250D03*
X135731250Y-114776250D03*
%TD*%
%TO.C,MX54*%
X171450000Y-123031250D03*
D11*
X166370000Y-123031250D03*
X176530000Y-123031250D03*
D12*
X159543750Y-130016250D03*
X183356250Y-130016250D03*
D10*
X159543750Y-114776250D03*
X183356250Y-114776250D03*
%TD*%
%TO.C,MX53*%
X264318750Y-123031250D03*
D11*
X259238750Y-123031250D03*
X269398750Y-123031250D03*
%TD*%
D10*
%TO.C,MX52*%
X245268750Y-123031250D03*
D11*
X240188750Y-123031250D03*
X250348750Y-123031250D03*
%TD*%
D10*
%TO.C,MX51*%
X226218750Y-123031250D03*
D11*
X221138750Y-123031250D03*
X231298750Y-123031250D03*
%TD*%
D10*
%TO.C,MX50*%
X207168750Y-123031250D03*
D11*
X202088750Y-123031250D03*
X212248750Y-123031250D03*
%TD*%
D10*
%TO.C,MX49*%
X92868750Y-123031250D03*
D11*
X87788750Y-123031250D03*
X97948750Y-123031250D03*
%TD*%
D10*
%TO.C,MX48*%
X73818750Y-123031250D03*
D11*
X68738750Y-123031250D03*
X78898750Y-123031250D03*
%TD*%
D10*
%TO.C,MX47*%
X54768750Y-123031250D03*
D11*
X49688750Y-123031250D03*
X59848750Y-123031250D03*
%TD*%
D10*
%TO.C,MX46*%
X35718750Y-123031250D03*
D11*
X30638750Y-123031250D03*
X40798750Y-123031250D03*
%TD*%
D10*
%TO.C,MX23*%
X211931250Y-84931250D03*
D11*
X206851250Y-84931250D03*
X217011250Y-84931250D03*
%TD*%
D10*
%TO.C,MX45*%
X259556250Y-123031250D03*
D11*
X254476250Y-123031250D03*
X264636250Y-123031250D03*
%TD*%
D10*
%TO.C,MX44*%
X233362500Y-123031250D03*
D11*
X228282500Y-123031250D03*
X238442500Y-123031250D03*
%TD*%
D10*
%TO.C,MX43*%
X209550000Y-123031250D03*
D11*
X204470000Y-123031250D03*
X214630000Y-123031250D03*
%TD*%
D10*
%TO.C,MX42*%
X176212500Y-123031250D03*
D11*
X171132500Y-123031250D03*
X181292500Y-123031250D03*
D12*
X164306250Y-130016250D03*
X188118750Y-130016250D03*
D10*
X164306250Y-114776250D03*
X188118750Y-114776250D03*
%TD*%
%TO.C,MX41*%
X128587500Y-123031250D03*
D11*
X123507500Y-123031250D03*
X133667500Y-123031250D03*
D12*
X116681250Y-130016250D03*
X140493750Y-130016250D03*
D10*
X116681250Y-114776250D03*
X140493750Y-114776250D03*
%TD*%
%TO.C,MX40*%
X90487500Y-123031250D03*
D11*
X85407500Y-123031250D03*
X95567500Y-123031250D03*
%TD*%
D10*
%TO.C,MX39*%
X66675000Y-123031250D03*
D11*
X61595000Y-123031250D03*
X71755000Y-123031250D03*
%TD*%
D10*
%TO.C,MX38*%
X40481250Y-123031250D03*
D11*
X35401250Y-123031250D03*
X45561250Y-123031250D03*
%TD*%
D10*
%TO.C,MX37*%
X261937500Y-103981250D03*
D11*
X256857500Y-103981250D03*
X267017500Y-103981250D03*
%TD*%
D10*
%TO.C,MX26*%
X42862500Y-103981250D03*
D11*
X37782500Y-103981250D03*
X47942500Y-103981250D03*
%TD*%
D10*
%TO.C,MX25*%
X257175000Y-84931250D03*
D11*
X252095000Y-84931250D03*
X262255000Y-84931250D03*
%TD*%
D10*
%TO.C,MX14*%
X38100000Y-84931250D03*
D11*
X33020000Y-84931250D03*
X43180000Y-84931250D03*
%TD*%
D10*
%TO.C,MX35*%
X221456250Y-103981250D03*
D11*
X216376250Y-103981250D03*
X226536250Y-103981250D03*
%TD*%
D10*
%TO.C,MX13*%
X264318750Y-65881250D03*
D11*
X259238750Y-65881250D03*
X269398750Y-65881250D03*
%TD*%
D10*
%TO.C,MX12*%
X245268750Y-65881250D03*
D11*
X240188750Y-65881250D03*
X250348750Y-65881250D03*
%TD*%
D10*
%TO.C,MX10*%
X207168750Y-65881250D03*
D11*
X202088750Y-65881250D03*
X212248750Y-65881250D03*
%TD*%
D13*
%TO.C,USB1*%
X68632800Y-58502000D03*
X59992800Y-58502000D03*
D14*
X61422800Y-57972000D03*
D15*
X59992800Y-54322000D03*
D14*
X67202800Y-57972000D03*
D15*
X68632800Y-54322000D03*
%TD*%
D10*
%TO.C,MX36*%
X240506250Y-103981250D03*
D11*
X235426250Y-103981250D03*
X245586250Y-103981250D03*
%TD*%
D10*
%TO.C,MX34*%
X202406250Y-103981250D03*
D11*
X197326250Y-103981250D03*
X207486250Y-103981250D03*
%TD*%
D10*
%TO.C,MX33*%
X183356250Y-103981250D03*
D11*
X178276250Y-103981250D03*
X188436250Y-103981250D03*
%TD*%
D10*
%TO.C,MX32*%
X164306250Y-103981250D03*
D11*
X159226250Y-103981250D03*
X169386250Y-103981250D03*
%TD*%
D10*
%TO.C,MX31*%
X145256250Y-103981250D03*
D11*
X140176250Y-103981250D03*
X150336250Y-103981250D03*
%TD*%
D10*
%TO.C,MX30*%
X126206250Y-103981250D03*
D11*
X121126250Y-103981250D03*
X131286250Y-103981250D03*
%TD*%
D10*
%TO.C,MX29*%
X107156250Y-103981250D03*
D11*
X102076250Y-103981250D03*
X112236250Y-103981250D03*
%TD*%
D10*
%TO.C,MX28*%
X88106250Y-103981250D03*
D11*
X83026250Y-103981250D03*
X93186250Y-103981250D03*
%TD*%
D10*
%TO.C,MX27*%
X69056250Y-103981250D03*
D11*
X63976250Y-103981250D03*
X74136250Y-103981250D03*
%TD*%
D10*
%TO.C,MX24*%
X230981250Y-84931250D03*
D11*
X225901250Y-84931250D03*
X236061250Y-84931250D03*
%TD*%
D10*
%TO.C,MX22*%
X192881250Y-84931250D03*
D11*
X187801250Y-84931250D03*
X197961250Y-84931250D03*
%TD*%
D10*
%TO.C,MX21*%
X173831250Y-84931250D03*
D11*
X168751250Y-84931250D03*
X178911250Y-84931250D03*
%TD*%
D10*
%TO.C,MX20*%
X154781250Y-84931250D03*
D11*
X149701250Y-84931250D03*
X159861250Y-84931250D03*
%TD*%
D10*
%TO.C,MX19*%
X135731250Y-84931250D03*
D11*
X130651250Y-84931250D03*
X140811250Y-84931250D03*
%TD*%
D10*
%TO.C,MX18*%
X116681250Y-84931250D03*
D11*
X111601250Y-84931250D03*
X121761250Y-84931250D03*
%TD*%
D10*
%TO.C,MX17*%
X97631250Y-84931250D03*
D11*
X92551250Y-84931250D03*
X102711250Y-84931250D03*
%TD*%
D10*
%TO.C,MX16*%
X78581250Y-84931250D03*
D11*
X73501250Y-84931250D03*
X83661250Y-84931250D03*
%TD*%
D10*
%TO.C,MX15*%
X59531250Y-84931250D03*
D11*
X54451250Y-84931250D03*
X64611250Y-84931250D03*
%TD*%
D10*
%TO.C,MX11*%
X226218750Y-65881250D03*
D11*
X221138750Y-65881250D03*
X231298750Y-65881250D03*
%TD*%
D10*
%TO.C,MX9*%
X188118750Y-65881250D03*
D11*
X183038750Y-65881250D03*
X193198750Y-65881250D03*
%TD*%
D10*
%TO.C,MX8*%
X169068750Y-65881250D03*
D11*
X163988750Y-65881250D03*
X174148750Y-65881250D03*
%TD*%
D10*
%TO.C,MX7*%
X150018750Y-65881250D03*
D11*
X144938750Y-65881250D03*
X155098750Y-65881250D03*
%TD*%
D10*
%TO.C,MX6*%
X130968750Y-65881250D03*
D11*
X125888750Y-65881250D03*
X136048750Y-65881250D03*
%TD*%
D10*
%TO.C,MX5*%
X111918750Y-65881250D03*
D11*
X106838750Y-65881250D03*
X116998750Y-65881250D03*
%TD*%
D10*
%TO.C,MX4*%
X92868750Y-65881250D03*
D11*
X87788750Y-65881250D03*
X97948750Y-65881250D03*
%TD*%
D10*
%TO.C,MX3*%
X73818750Y-65881250D03*
D11*
X68738750Y-65881250D03*
X78898750Y-65881250D03*
%TD*%
D10*
%TO.C,MX2*%
X54768750Y-65881250D03*
D11*
X49688750Y-65881250D03*
X59848750Y-65881250D03*
%TD*%
D10*
%TO.C,MX1*%
X35718750Y-65881250D03*
D11*
X30638750Y-65881250D03*
X40798750Y-65881250D03*
%TD*%
M02*
