M48
; DRILL file {KiCad (5.1.10)-1} date 09/06/21 15:43:42
; FORMAT={-:-/ absolute / metric / decimal}
; #@! TF.CreationDate,2021-09-06T15:43:42+02:00
; #@! TF.GenerationSoftware,Kicad,Pcbnew,(5.1.10)-1
; #@! TF.FileFunction,Plated,1,2,PTH
FMAT,2
METRIC
T1C0.400
T2C0.600
T3C1.470
%
G90
G05
T1
X42.037Y-95.25
X43.18Y-91.313
X44.725Y-91.313
X50.038Y-96.139
X50.165Y-106.934
X53.213Y-74.422
X55.245Y-86.868
X59.182Y-69.723
X59.182Y-72.39
X61.341Y-108.585
X61.849Y-62.103
X66.802Y-62.103
X66.802Y-91.313
X69.342Y-69.723
X72.009Y-74.168
X75.387Y-89.738
X94.386Y-91.107
X116.268Y-95.313
X132.588Y-91.186
X153.987Y-94.932
X170.688Y-91.821
X191.516Y-94.361
X208.788Y-92.202
X229.235Y-93.98
X254.102Y-93.193
T3
X31.909Y-63.341
X34.29Y-82.391
X36.671Y-120.491
X38.259Y-60.801
X39.052Y-101.441
X40.64Y-79.851
X43.021Y-117.951
X45.402Y-98.901
X50.959Y-63.341
X55.721Y-82.391
X57.309Y-60.801
X62.071Y-79.851
X62.865Y-120.491
X65.246Y-101.441
X69.215Y-117.951
X70.009Y-63.341
X71.596Y-98.901
X74.771Y-82.391
X76.359Y-60.801
X81.121Y-79.851
X84.296Y-101.441
X86.677Y-120.491
X89.059Y-63.341
X90.646Y-98.901
X93.027Y-117.951
X93.821Y-82.391
X95.409Y-60.801
X100.171Y-79.851
X103.346Y-101.441
X108.109Y-63.341
X109.696Y-98.901
X112.871Y-82.391
X114.459Y-60.801
X119.221Y-79.851
X122.396Y-101.441
X124.777Y-120.491
X127.159Y-63.341
X128.746Y-98.901
X131.127Y-117.951
X131.921Y-82.391
X133.509Y-60.801
X138.271Y-79.851
X141.446Y-101.441
X146.209Y-63.341
X147.796Y-98.901
X150.971Y-82.391
X152.559Y-60.801
X157.321Y-79.851
X160.496Y-101.441
X165.259Y-63.341
X166.846Y-98.901
X170.021Y-82.391
X171.609Y-60.801
X172.403Y-120.491
X176.371Y-79.851
X178.752Y-117.951
X179.546Y-101.441
X184.309Y-63.341
X185.896Y-98.901
X189.071Y-82.391
X190.659Y-60.801
X195.421Y-79.851
X198.596Y-101.441
X203.359Y-63.341
X204.946Y-98.901
X205.74Y-120.491
X208.121Y-82.391
X209.709Y-60.801
X212.09Y-117.951
X214.471Y-79.851
X217.646Y-101.441
X222.409Y-63.341
X223.996Y-98.901
X227.171Y-82.391
X228.759Y-60.801
X229.552Y-120.491
X233.521Y-79.851
X235.903Y-117.951
X236.696Y-101.441
X241.459Y-63.341
X243.046Y-98.901
X247.809Y-60.801
X253.365Y-82.391
X255.746Y-120.491
X258.127Y-101.441
X259.715Y-79.851
X260.509Y-63.341
X262.096Y-117.951
X264.477Y-98.901
X266.859Y-60.801
T2
G00X59.993Y-54.022
M15
G01X59.993Y-54.622
M16
G05
G00X59.993Y-57.952
M15
G01X59.993Y-59.052
M16
G05
G00X68.633Y-54.022
M15
G01X68.633Y-54.622
M16
G05
G00X68.633Y-57.952
M15
G01X68.633Y-59.052
M16
G05
T0
M30
