M48
; DRILL file {KiCad (5.1.10)-1} date 09/06/21 15:51:22
; FORMAT={-:-/ absolute / metric / decimal}
; #@! TF.CreationDate,2021-09-06T15:51:22+02:00
; #@! TF.GenerationSoftware,Kicad,Pcbnew,(5.1.10)-1
; #@! TF.FileFunction,NonPlated,1,2,NPTH
FMAT,2
METRIC
T1C0.650
T2C1.750
T3C3.048
T4C3.988
%
G90
G05
T1
X61.423Y-57.972
X67.203Y-57.972
T2
X30.639Y-65.881
X33.02Y-84.931
X35.401Y-123.031
X37.782Y-103.981
X40.799Y-65.881
X43.18Y-84.931
X45.561Y-123.031
X47.942Y-103.981
X49.689Y-65.881
X54.451Y-84.931
X59.849Y-65.881
X61.595Y-123.031
X63.976Y-103.981
X64.611Y-84.931
X68.739Y-65.881
X71.755Y-123.031
X73.501Y-84.931
X74.136Y-103.981
X78.899Y-65.881
X83.026Y-103.981
X83.661Y-84.931
X85.407Y-123.031
X87.789Y-65.881
X92.551Y-84.931
X93.186Y-103.981
X95.567Y-123.031
X97.949Y-65.881
X102.076Y-103.981
X102.711Y-84.931
X106.839Y-65.881
X111.601Y-84.931
X112.236Y-103.981
X116.999Y-65.881
X121.126Y-103.981
X121.761Y-84.931
X123.507Y-123.031
X125.889Y-65.881
X130.651Y-84.931
X131.286Y-103.981
X133.667Y-123.031
X136.049Y-65.881
X140.176Y-103.981
X140.811Y-84.931
X144.939Y-65.881
X149.701Y-84.931
X150.336Y-103.981
X155.099Y-65.881
X159.226Y-103.981
X159.861Y-84.931
X163.989Y-65.881
X168.751Y-84.931
X169.386Y-103.981
X171.132Y-123.031
X174.149Y-65.881
X178.276Y-103.981
X178.911Y-84.931
X181.292Y-123.031
X183.039Y-65.881
X187.801Y-84.931
X188.436Y-103.981
X193.199Y-65.881
X197.326Y-103.981
X197.961Y-84.931
X202.089Y-65.881
X204.47Y-123.031
X206.851Y-84.931
X207.486Y-103.981
X212.249Y-65.881
X214.63Y-123.031
X216.376Y-103.981
X217.011Y-84.931
X221.139Y-65.881
X225.901Y-84.931
X226.536Y-103.981
X228.282Y-123.031
X231.299Y-65.881
X235.426Y-103.981
X236.061Y-84.931
X238.442Y-123.031
X240.189Y-65.881
X245.586Y-103.981
X250.349Y-65.881
X252.095Y-84.931
X254.476Y-123.031
X256.858Y-103.981
X259.239Y-65.881
X262.255Y-84.931
X264.636Y-123.031
X267.017Y-103.981
X269.399Y-65.881
T3
X116.681Y-130.016
X140.494Y-130.016
X164.306Y-130.016
X188.119Y-130.016
T4
X35.719Y-65.881
X38.1Y-84.931
X40.481Y-123.031
X42.862Y-103.981
X54.769Y-65.881
X59.531Y-84.931
X66.675Y-123.031
X69.056Y-103.981
X73.819Y-65.881
X78.581Y-84.931
X88.106Y-103.981
X90.487Y-123.031
X92.869Y-65.881
X97.631Y-84.931
X107.156Y-103.981
X111.919Y-65.881
X116.681Y-84.931
X116.681Y-114.776
X126.206Y-103.981
X128.588Y-123.031
X130.969Y-65.881
X135.731Y-84.931
X140.494Y-114.776
X145.256Y-103.981
X150.019Y-65.881
X154.781Y-84.931
X164.306Y-103.981
X164.306Y-114.776
X169.069Y-65.881
X173.831Y-84.931
X176.213Y-123.031
X183.356Y-103.981
X188.119Y-65.881
X188.119Y-114.776
X192.881Y-84.931
X202.406Y-103.981
X207.169Y-65.881
X209.55Y-123.031
X211.931Y-84.931
X221.456Y-103.981
X226.219Y-65.881
X230.981Y-84.931
X233.362Y-123.031
X240.506Y-103.981
X245.269Y-65.881
X257.175Y-84.931
X259.556Y-123.031
X261.938Y-103.981
X264.319Y-65.881
T0
M30
