%TF.GenerationSoftware,KiCad,Pcbnew,(5.1.10)-1*%
%TF.CreationDate,2021-09-13T19:26:31+02:00*%
%TF.ProjectId,vertex,76657274-6578-42e6-9b69-6361645f7063,rev?*%
%TF.SameCoordinates,Original*%
%TF.FileFunction,Soldermask,Bot*%
%TF.FilePolarity,Negative*%
%FSLAX46Y46*%
G04 Gerber Fmt 4.6, Leading zero omitted, Abs format (unit mm)*
G04 Created by KiCad (PCBNEW (5.1.10)-1) date 2021-09-13 19:26:31*
%MOMM*%
%LPD*%
G01*
G04 APERTURE LIST*
%ADD10C,2.250000*%
%ADD11C,3.987800*%
%ADD12C,1.750000*%
%ADD13C,3.048000*%
%ADD14R,0.800000X0.900000*%
%ADD15C,0.100000*%
%ADD16R,0.600000X1.450000*%
%ADD17R,0.300000X1.450000*%
%ADD18O,1.000000X2.100000*%
%ADD19C,0.650000*%
%ADD20O,1.000000X1.600000*%
%ADD21R,1.060000X0.650000*%
%ADD22R,1.700000X1.000000*%
G04 APERTURE END LIST*
D10*
%TO.C,MX60*%
X257333750Y-60801250D03*
D11*
X254793750Y-65881250D03*
D10*
X250983750Y-63341250D03*
D12*
X249713750Y-65881250D03*
X259873750Y-65881250D03*
D13*
X242887500Y-58896250D03*
X266700000Y-58896250D03*
D11*
X242887500Y-74136250D03*
X266700000Y-74136250D03*
%TD*%
D10*
%TO.C,MX67*%
X266858750Y-98901250D03*
D11*
X264318750Y-103981250D03*
D10*
X260508750Y-101441250D03*
D12*
X259238750Y-103981250D03*
X269398750Y-103981250D03*
%TD*%
D10*
%TO.C,MX66*%
X245427500Y-98901250D03*
D11*
X242887500Y-103981250D03*
D10*
X239077500Y-101441250D03*
D12*
X237807500Y-103981250D03*
X247967500Y-103981250D03*
%TD*%
D14*
%TO.C,D19*%
X252222000Y-108569000D03*
X253172000Y-106569000D03*
X251272000Y-106569000D03*
%TD*%
%TO.C,D18*%
X211963000Y-108569000D03*
X212913000Y-106569000D03*
X211013000Y-106569000D03*
%TD*%
%TO.C,D17*%
X173863000Y-108569000D03*
X174813000Y-106569000D03*
X172913000Y-106569000D03*
%TD*%
%TO.C,D16*%
X135763000Y-108569000D03*
X136713000Y-106569000D03*
X134813000Y-106569000D03*
%TD*%
%TO.C,D15*%
X97663000Y-108569000D03*
X98613000Y-106569000D03*
X96713000Y-106569000D03*
%TD*%
%TO.C,D14*%
X78613000Y-108569000D03*
X79563000Y-106569000D03*
X77663000Y-106569000D03*
%TD*%
%TO.C,D13*%
X240538000Y-89265000D03*
X241488000Y-87265000D03*
X239588000Y-87265000D03*
%TD*%
%TO.C,D12*%
X202438000Y-89265000D03*
X203388000Y-87265000D03*
X201488000Y-87265000D03*
%TD*%
%TO.C,D11*%
X164338000Y-89265000D03*
X165288000Y-87265000D03*
X163388000Y-87265000D03*
%TD*%
%TO.C,D10*%
X126174500Y-89265000D03*
X127124500Y-87265000D03*
X125224500Y-87265000D03*
%TD*%
%TO.C,D9*%
X88074500Y-89265000D03*
X89024500Y-87265000D03*
X87124500Y-87265000D03*
%TD*%
%TO.C,D8*%
X45339000Y-72406000D03*
X44389000Y-74406000D03*
X46289000Y-74406000D03*
%TD*%
%TO.C,D6*%
X235712000Y-69707000D03*
X236662000Y-67707000D03*
X234762000Y-67707000D03*
%TD*%
%TO.C,D5*%
X197739000Y-69707000D03*
X198689000Y-67707000D03*
X196789000Y-67707000D03*
%TD*%
%TO.C,D4*%
X159512000Y-69707000D03*
X160462000Y-67707000D03*
X158562000Y-67707000D03*
%TD*%
%TO.C,D3*%
X121412000Y-69707000D03*
X122362000Y-67707000D03*
X120462000Y-67707000D03*
%TD*%
%TO.C,D2*%
X83312000Y-69707000D03*
X84262000Y-67707000D03*
X82362000Y-67707000D03*
%TD*%
%TO.C,D1*%
X45262800Y-69707000D03*
X46212800Y-67707000D03*
X44312800Y-67707000D03*
%TD*%
%TO.C,D24*%
X149733000Y-112157000D03*
X148783000Y-114157000D03*
X150683000Y-114157000D03*
%TD*%
%TO.C,D21*%
X82804000Y-112157000D03*
X81854000Y-114157000D03*
X83754000Y-114157000D03*
%TD*%
%TO.C,D20*%
X50673000Y-112157000D03*
X49723000Y-114157000D03*
X51623000Y-114157000D03*
%TD*%
%TO.C,D22*%
X219583000Y-112157000D03*
X218633000Y-114157000D03*
X220533000Y-114157000D03*
%TD*%
%TO.C,D23*%
X254793750Y-112157000D03*
X253843750Y-114157000D03*
X255743750Y-114157000D03*
%TD*%
%TO.C,D7*%
X254762000Y-73644000D03*
X255712000Y-71644000D03*
X253812000Y-71644000D03*
%TD*%
D10*
%TO.C,MX55*%
X126365000Y-117951250D03*
D11*
X123825000Y-123031250D03*
D10*
X120015000Y-120491250D03*
D12*
X118745000Y-123031250D03*
X128905000Y-123031250D03*
D13*
X111918750Y-130016250D03*
X135731250Y-130016250D03*
D11*
X111918750Y-114776250D03*
X135731250Y-114776250D03*
%TD*%
D10*
%TO.C,MX54*%
X173990000Y-117951250D03*
D11*
X171450000Y-123031250D03*
D10*
X167640000Y-120491250D03*
D12*
X166370000Y-123031250D03*
X176530000Y-123031250D03*
D13*
X159543750Y-130016250D03*
X183356250Y-130016250D03*
D11*
X159543750Y-114776250D03*
X183356250Y-114776250D03*
%TD*%
D10*
%TO.C,MX53*%
X266858750Y-117951250D03*
D11*
X264318750Y-123031250D03*
D10*
X260508750Y-120491250D03*
D12*
X259238750Y-123031250D03*
X269398750Y-123031250D03*
%TD*%
D10*
%TO.C,MX52*%
X247808750Y-117951250D03*
D11*
X245268750Y-123031250D03*
D10*
X241458750Y-120491250D03*
D12*
X240188750Y-123031250D03*
X250348750Y-123031250D03*
%TD*%
D10*
%TO.C,MX51*%
X228758750Y-117951250D03*
D11*
X226218750Y-123031250D03*
D10*
X222408750Y-120491250D03*
D12*
X221138750Y-123031250D03*
X231298750Y-123031250D03*
%TD*%
D10*
%TO.C,MX50*%
X209708750Y-117951250D03*
D11*
X207168750Y-123031250D03*
D10*
X203358750Y-120491250D03*
D12*
X202088750Y-123031250D03*
X212248750Y-123031250D03*
%TD*%
D10*
%TO.C,MX49*%
X95408750Y-117951250D03*
D11*
X92868750Y-123031250D03*
D10*
X89058750Y-120491250D03*
D12*
X87788750Y-123031250D03*
X97948750Y-123031250D03*
%TD*%
D10*
%TO.C,MX48*%
X76358750Y-117951250D03*
D11*
X73818750Y-123031250D03*
D10*
X70008750Y-120491250D03*
D12*
X68738750Y-123031250D03*
X78898750Y-123031250D03*
%TD*%
D10*
%TO.C,MX47*%
X57308750Y-117951250D03*
D11*
X54768750Y-123031250D03*
D10*
X50958750Y-120491250D03*
D12*
X49688750Y-123031250D03*
X59848750Y-123031250D03*
%TD*%
D10*
%TO.C,MX46*%
X38258750Y-117951250D03*
D11*
X35718750Y-123031250D03*
D10*
X31908750Y-120491250D03*
D12*
X30638750Y-123031250D03*
X40798750Y-123031250D03*
%TD*%
D10*
%TO.C,MX23*%
X214471250Y-79851250D03*
D11*
X211931250Y-84931250D03*
D10*
X208121250Y-82391250D03*
D12*
X206851250Y-84931250D03*
X217011250Y-84931250D03*
%TD*%
%TO.C,C7*%
G36*
G01*
X52595678Y-88753927D02*
X51923927Y-89425678D01*
G75*
G02*
X51570373Y-89425678I-176777J176777D01*
G01*
X51216820Y-89072125D01*
G75*
G02*
X51216820Y-88718571I176777J176777D01*
G01*
X51888571Y-88046820D01*
G75*
G02*
X52242125Y-88046820I176777J-176777D01*
G01*
X52595678Y-88400373D01*
G75*
G02*
X52595678Y-88753927I-176777J-176777D01*
G01*
G37*
G36*
G01*
X53939180Y-90097429D02*
X53267429Y-90769180D01*
G75*
G02*
X52913875Y-90769180I-176777J176777D01*
G01*
X52560322Y-90415627D01*
G75*
G02*
X52560322Y-90062073I176777J176777D01*
G01*
X53232073Y-89390322D01*
G75*
G02*
X53585627Y-89390322I176777J-176777D01*
G01*
X53939180Y-89743875D01*
G75*
G02*
X53939180Y-90097429I-176777J-176777D01*
G01*
G37*
%TD*%
D10*
%TO.C,MX45*%
X262096250Y-117951250D03*
D11*
X259556250Y-123031250D03*
D10*
X255746250Y-120491250D03*
D12*
X254476250Y-123031250D03*
X264636250Y-123031250D03*
%TD*%
D10*
%TO.C,MX44*%
X235902500Y-117951250D03*
D11*
X233362500Y-123031250D03*
D10*
X229552500Y-120491250D03*
D12*
X228282500Y-123031250D03*
X238442500Y-123031250D03*
%TD*%
D10*
%TO.C,MX43*%
X212090000Y-117951250D03*
D11*
X209550000Y-123031250D03*
D10*
X205740000Y-120491250D03*
D12*
X204470000Y-123031250D03*
X214630000Y-123031250D03*
%TD*%
D10*
%TO.C,MX42*%
X178752500Y-117951250D03*
D11*
X176212500Y-123031250D03*
D10*
X172402500Y-120491250D03*
D12*
X171132500Y-123031250D03*
X181292500Y-123031250D03*
D13*
X164306250Y-130016250D03*
X188118750Y-130016250D03*
D11*
X164306250Y-114776250D03*
X188118750Y-114776250D03*
%TD*%
D10*
%TO.C,MX41*%
X131127500Y-117951250D03*
D11*
X128587500Y-123031250D03*
D10*
X124777500Y-120491250D03*
D12*
X123507500Y-123031250D03*
X133667500Y-123031250D03*
D13*
X116681250Y-130016250D03*
X140493750Y-130016250D03*
D11*
X116681250Y-114776250D03*
X140493750Y-114776250D03*
%TD*%
D10*
%TO.C,MX40*%
X93027500Y-117951250D03*
D11*
X90487500Y-123031250D03*
D10*
X86677500Y-120491250D03*
D12*
X85407500Y-123031250D03*
X95567500Y-123031250D03*
%TD*%
D10*
%TO.C,MX39*%
X69215000Y-117951250D03*
D11*
X66675000Y-123031250D03*
D10*
X62865000Y-120491250D03*
D12*
X61595000Y-123031250D03*
X71755000Y-123031250D03*
%TD*%
D10*
%TO.C,MX38*%
X43021250Y-117951250D03*
D11*
X40481250Y-123031250D03*
D10*
X36671250Y-120491250D03*
D12*
X35401250Y-123031250D03*
X45561250Y-123031250D03*
%TD*%
D10*
%TO.C,MX37*%
X264477500Y-98901250D03*
D11*
X261937500Y-103981250D03*
D10*
X258127500Y-101441250D03*
D12*
X256857500Y-103981250D03*
X267017500Y-103981250D03*
%TD*%
D10*
%TO.C,MX26*%
X45402500Y-98901250D03*
D11*
X42862500Y-103981250D03*
D10*
X39052500Y-101441250D03*
D12*
X37782500Y-103981250D03*
X47942500Y-103981250D03*
%TD*%
D10*
%TO.C,MX25*%
X259715000Y-79851250D03*
D11*
X257175000Y-84931250D03*
D10*
X253365000Y-82391250D03*
D12*
X252095000Y-84931250D03*
X262255000Y-84931250D03*
%TD*%
D10*
%TO.C,MX14*%
X40640000Y-79851250D03*
D11*
X38100000Y-84931250D03*
D10*
X34290000Y-82391250D03*
D12*
X33020000Y-84931250D03*
X43180000Y-84931250D03*
%TD*%
D10*
%TO.C,MX35*%
X223996250Y-98901250D03*
D11*
X221456250Y-103981250D03*
D10*
X217646250Y-101441250D03*
D12*
X216376250Y-103981250D03*
X226536250Y-103981250D03*
%TD*%
D10*
%TO.C,MX13*%
X266858750Y-60801250D03*
D11*
X264318750Y-65881250D03*
D10*
X260508750Y-63341250D03*
D12*
X259238750Y-65881250D03*
X269398750Y-65881250D03*
%TD*%
D10*
%TO.C,MX12*%
X247808750Y-60801250D03*
D11*
X245268750Y-65881250D03*
D10*
X241458750Y-63341250D03*
D12*
X240188750Y-65881250D03*
X250348750Y-65881250D03*
%TD*%
D10*
%TO.C,MX10*%
X209708750Y-60801250D03*
D11*
X207168750Y-65881250D03*
D10*
X203358750Y-63341250D03*
D12*
X202088750Y-65881250D03*
X212248750Y-65881250D03*
%TD*%
D15*
%TO.C,X1*%
G36*
X50044512Y-93992097D02*
G01*
X49195984Y-93143569D01*
X50185934Y-92153619D01*
X51034462Y-93002147D01*
X50044512Y-93992097D01*
G37*
G36*
X51600147Y-92436462D02*
G01*
X50751619Y-91587934D01*
X51741569Y-90597984D01*
X52590097Y-91446512D01*
X51600147Y-92436462D01*
G37*
G36*
X50398066Y-91234381D02*
G01*
X49549538Y-90385853D01*
X50539488Y-89395903D01*
X51388016Y-90244431D01*
X50398066Y-91234381D01*
G37*
G36*
X48842431Y-92790016D02*
G01*
X47993903Y-91941488D01*
X48983853Y-90951538D01*
X49832381Y-91800066D01*
X48842431Y-92790016D01*
G37*
%TD*%
D16*
%TO.C,USB1*%
X67562800Y-59417000D03*
X66762800Y-59417000D03*
X61862800Y-59417000D03*
X61062800Y-59417000D03*
X61062800Y-59417000D03*
X61862800Y-59417000D03*
X66762800Y-59417000D03*
X67562800Y-59417000D03*
D17*
X62562800Y-59417000D03*
X63062800Y-59417000D03*
X63562800Y-59417000D03*
X64562800Y-59417000D03*
X65062800Y-59417000D03*
X65562800Y-59417000D03*
X66062800Y-59417000D03*
X64062800Y-59417000D03*
D18*
X68632800Y-58502000D03*
X59992800Y-58502000D03*
D19*
X61422800Y-57972000D03*
D20*
X59992800Y-54322000D03*
D19*
X67202800Y-57972000D03*
D20*
X68632800Y-54322000D03*
%TD*%
D21*
%TO.C,U2*%
X65412800Y-67437000D03*
X65412800Y-68387000D03*
X65412800Y-66487000D03*
X63212800Y-66487000D03*
X63212800Y-67437000D03*
X63212800Y-68387000D03*
%TD*%
D15*
%TO.C,U1*%
G36*
X52790128Y-95769165D02*
G01*
X53179037Y-96158074D01*
X52047666Y-97289445D01*
X51658757Y-96900536D01*
X52790128Y-95769165D01*
G37*
G36*
X53355814Y-96334850D02*
G01*
X53744723Y-96723759D01*
X52613352Y-97855130D01*
X52224443Y-97466221D01*
X53355814Y-96334850D01*
G37*
G36*
X53921499Y-96900536D02*
G01*
X54310408Y-97289445D01*
X53179037Y-98420816D01*
X52790128Y-98031907D01*
X53921499Y-96900536D01*
G37*
G36*
X54487184Y-97466221D02*
G01*
X54876093Y-97855130D01*
X53744722Y-98986501D01*
X53355813Y-98597592D01*
X54487184Y-97466221D01*
G37*
G36*
X55052870Y-98031907D02*
G01*
X55441779Y-98420816D01*
X54310408Y-99552187D01*
X53921499Y-99163278D01*
X55052870Y-98031907D01*
G37*
G36*
X55618555Y-98597592D02*
G01*
X56007464Y-98986501D01*
X54876093Y-100117872D01*
X54487184Y-99728963D01*
X55618555Y-98597592D01*
G37*
G36*
X56184241Y-99163277D02*
G01*
X56573150Y-99552186D01*
X55441779Y-100683557D01*
X55052870Y-100294648D01*
X56184241Y-99163277D01*
G37*
G36*
X56749926Y-99728963D02*
G01*
X57138835Y-100117872D01*
X56007464Y-101249243D01*
X55618555Y-100860334D01*
X56749926Y-99728963D01*
G37*
G36*
X57669165Y-100117872D02*
G01*
X58058074Y-99728963D01*
X59189445Y-100860334D01*
X58800536Y-101249243D01*
X57669165Y-100117872D01*
G37*
G36*
X58234850Y-99552186D02*
G01*
X58623759Y-99163277D01*
X59755130Y-100294648D01*
X59366221Y-100683557D01*
X58234850Y-99552186D01*
G37*
G36*
X58800536Y-98986501D02*
G01*
X59189445Y-98597592D01*
X60320816Y-99728963D01*
X59931907Y-100117872D01*
X58800536Y-98986501D01*
G37*
G36*
X59366221Y-98420816D02*
G01*
X59755130Y-98031907D01*
X60886501Y-99163278D01*
X60497592Y-99552187D01*
X59366221Y-98420816D01*
G37*
G36*
X59931907Y-97855130D02*
G01*
X60320816Y-97466221D01*
X61452187Y-98597592D01*
X61063278Y-98986501D01*
X59931907Y-97855130D01*
G37*
G36*
X60497592Y-97289445D02*
G01*
X60886501Y-96900536D01*
X62017872Y-98031907D01*
X61628963Y-98420816D01*
X60497592Y-97289445D01*
G37*
G36*
X61063277Y-96723759D02*
G01*
X61452186Y-96334850D01*
X62583557Y-97466221D01*
X62194648Y-97855130D01*
X61063277Y-96723759D01*
G37*
G36*
X61628963Y-96158074D02*
G01*
X62017872Y-95769165D01*
X63149243Y-96900536D01*
X62760334Y-97289445D01*
X61628963Y-96158074D01*
G37*
G36*
X62760334Y-93718555D02*
G01*
X63149243Y-94107464D01*
X62017872Y-95238835D01*
X61628963Y-94849926D01*
X62760334Y-93718555D01*
G37*
G36*
X62194648Y-93152870D02*
G01*
X62583557Y-93541779D01*
X61452186Y-94673150D01*
X61063277Y-94284241D01*
X62194648Y-93152870D01*
G37*
G36*
X61628963Y-92587184D02*
G01*
X62017872Y-92976093D01*
X60886501Y-94107464D01*
X60497592Y-93718555D01*
X61628963Y-92587184D01*
G37*
G36*
X61063278Y-92021499D02*
G01*
X61452187Y-92410408D01*
X60320816Y-93541779D01*
X59931907Y-93152870D01*
X61063278Y-92021499D01*
G37*
G36*
X60497592Y-91455813D02*
G01*
X60886501Y-91844722D01*
X59755130Y-92976093D01*
X59366221Y-92587184D01*
X60497592Y-91455813D01*
G37*
G36*
X59931907Y-90890128D02*
G01*
X60320816Y-91279037D01*
X59189445Y-92410408D01*
X58800536Y-92021499D01*
X59931907Y-90890128D01*
G37*
G36*
X59366221Y-90324443D02*
G01*
X59755130Y-90713352D01*
X58623759Y-91844723D01*
X58234850Y-91455814D01*
X59366221Y-90324443D01*
G37*
G36*
X58800536Y-89758757D02*
G01*
X59189445Y-90147666D01*
X58058074Y-91279037D01*
X57669165Y-90890128D01*
X58800536Y-89758757D01*
G37*
G36*
X55618555Y-90147666D02*
G01*
X56007464Y-89758757D01*
X57138835Y-90890128D01*
X56749926Y-91279037D01*
X55618555Y-90147666D01*
G37*
G36*
X55052870Y-90713352D02*
G01*
X55441779Y-90324443D01*
X56573150Y-91455814D01*
X56184241Y-91844723D01*
X55052870Y-90713352D01*
G37*
G36*
X54487184Y-91279037D02*
G01*
X54876093Y-90890128D01*
X56007464Y-92021499D01*
X55618555Y-92410408D01*
X54487184Y-91279037D01*
G37*
G36*
X53921499Y-91844722D02*
G01*
X54310408Y-91455813D01*
X55441779Y-92587184D01*
X55052870Y-92976093D01*
X53921499Y-91844722D01*
G37*
G36*
X53355813Y-92410408D02*
G01*
X53744722Y-92021499D01*
X54876093Y-93152870D01*
X54487184Y-93541779D01*
X53355813Y-92410408D01*
G37*
G36*
X52790128Y-92976093D02*
G01*
X53179037Y-92587184D01*
X54310408Y-93718555D01*
X53921499Y-94107464D01*
X52790128Y-92976093D01*
G37*
G36*
X52224443Y-93541779D02*
G01*
X52613352Y-93152870D01*
X53744723Y-94284241D01*
X53355814Y-94673150D01*
X52224443Y-93541779D01*
G37*
G36*
X51658757Y-94107464D02*
G01*
X52047666Y-93718555D01*
X53179037Y-94849926D01*
X52790128Y-95238835D01*
X51658757Y-94107464D01*
G37*
%TD*%
D22*
%TO.C,RESET*%
X44171000Y-108971000D03*
X37871000Y-108971000D03*
X44171000Y-112771000D03*
X37871000Y-112771000D03*
%TD*%
%TO.C,R6*%
G36*
G01*
X48837002Y-107550000D02*
X47936998Y-107550000D01*
G75*
G02*
X47687000Y-107300002I0J249998D01*
G01*
X47687000Y-106774998D01*
G75*
G02*
X47936998Y-106525000I249998J0D01*
G01*
X48837002Y-106525000D01*
G75*
G02*
X49087000Y-106774998I0J-249998D01*
G01*
X49087000Y-107300002D01*
G75*
G02*
X48837002Y-107550000I-249998J0D01*
G01*
G37*
G36*
G01*
X48837002Y-109375000D02*
X47936998Y-109375000D01*
G75*
G02*
X47687000Y-109125002I0J249998D01*
G01*
X47687000Y-108599998D01*
G75*
G02*
X47936998Y-108350000I249998J0D01*
G01*
X48837002Y-108350000D01*
G75*
G02*
X49087000Y-108599998I0J-249998D01*
G01*
X49087000Y-109125002D01*
G75*
G02*
X48837002Y-109375000I-249998J0D01*
G01*
G37*
%TD*%
%TO.C,R5*%
G36*
G01*
X63989000Y-90481998D02*
X63989000Y-91382002D01*
G75*
G02*
X63739002Y-91632000I-249998J0D01*
G01*
X63213998Y-91632000D01*
G75*
G02*
X62964000Y-91382002I0J249998D01*
G01*
X62964000Y-90481998D01*
G75*
G02*
X63213998Y-90232000I249998J0D01*
G01*
X63739002Y-90232000D01*
G75*
G02*
X63989000Y-90481998I0J-249998D01*
G01*
G37*
G36*
G01*
X65814000Y-90481998D02*
X65814000Y-91382002D01*
G75*
G02*
X65564002Y-91632000I-249998J0D01*
G01*
X65038998Y-91632000D01*
G75*
G02*
X64789000Y-91382002I0J249998D01*
G01*
X64789000Y-90481998D01*
G75*
G02*
X65038998Y-90232000I249998J0D01*
G01*
X65564002Y-90232000D01*
G75*
G02*
X65814000Y-90481998I0J-249998D01*
G01*
G37*
%TD*%
%TO.C,R4*%
G36*
G01*
X47301998Y-82442000D02*
X48202002Y-82442000D01*
G75*
G02*
X48452000Y-82691998I0J-249998D01*
G01*
X48452000Y-83217002D01*
G75*
G02*
X48202002Y-83467000I-249998J0D01*
G01*
X47301998Y-83467000D01*
G75*
G02*
X47052000Y-83217002I0J249998D01*
G01*
X47052000Y-82691998D01*
G75*
G02*
X47301998Y-82442000I249998J0D01*
G01*
G37*
G36*
G01*
X47301998Y-80617000D02*
X48202002Y-80617000D01*
G75*
G02*
X48452000Y-80866998I0J-249998D01*
G01*
X48452000Y-81392002D01*
G75*
G02*
X48202002Y-81642000I-249998J0D01*
G01*
X47301998Y-81642000D01*
G75*
G02*
X47052000Y-81392002I0J249998D01*
G01*
X47052000Y-80866998D01*
G75*
G02*
X47301998Y-80617000I249998J0D01*
G01*
G37*
%TD*%
%TO.C,R3*%
G36*
G01*
X49587998Y-82442000D02*
X50488002Y-82442000D01*
G75*
G02*
X50738000Y-82691998I0J-249998D01*
G01*
X50738000Y-83217002D01*
G75*
G02*
X50488002Y-83467000I-249998J0D01*
G01*
X49587998Y-83467000D01*
G75*
G02*
X49338000Y-83217002I0J249998D01*
G01*
X49338000Y-82691998D01*
G75*
G02*
X49587998Y-82442000I249998J0D01*
G01*
G37*
G36*
G01*
X49587998Y-80617000D02*
X50488002Y-80617000D01*
G75*
G02*
X50738000Y-80866998I0J-249998D01*
G01*
X50738000Y-81392002D01*
G75*
G02*
X50488002Y-81642000I-249998J0D01*
G01*
X49587998Y-81642000D01*
G75*
G02*
X49338000Y-81392002I0J249998D01*
G01*
X49338000Y-80866998D01*
G75*
G02*
X49587998Y-80617000I249998J0D01*
G01*
G37*
%TD*%
%TO.C,R2*%
G36*
G01*
X72447200Y-58071598D02*
X72447200Y-58971602D01*
G75*
G02*
X72197202Y-59221600I-249998J0D01*
G01*
X71672198Y-59221600D01*
G75*
G02*
X71422200Y-58971602I0J249998D01*
G01*
X71422200Y-58071598D01*
G75*
G02*
X71672198Y-57821600I249998J0D01*
G01*
X72197202Y-57821600D01*
G75*
G02*
X72447200Y-58071598I0J-249998D01*
G01*
G37*
G36*
G01*
X74272200Y-58071598D02*
X74272200Y-58971602D01*
G75*
G02*
X74022202Y-59221600I-249998J0D01*
G01*
X73497198Y-59221600D01*
G75*
G02*
X73247200Y-58971602I0J249998D01*
G01*
X73247200Y-58071598D01*
G75*
G02*
X73497198Y-57821600I249998J0D01*
G01*
X74022202Y-57821600D01*
G75*
G02*
X74272200Y-58071598I0J-249998D01*
G01*
G37*
%TD*%
%TO.C,R1*%
G36*
G01*
X53486000Y-58971602D02*
X53486000Y-58071598D01*
G75*
G02*
X53735998Y-57821600I249998J0D01*
G01*
X54261002Y-57821600D01*
G75*
G02*
X54511000Y-58071598I0J-249998D01*
G01*
X54511000Y-58971602D01*
G75*
G02*
X54261002Y-59221600I-249998J0D01*
G01*
X53735998Y-59221600D01*
G75*
G02*
X53486000Y-58971602I0J249998D01*
G01*
G37*
G36*
G01*
X51661000Y-58971602D02*
X51661000Y-58071598D01*
G75*
G02*
X51910998Y-57821600I249998J0D01*
G01*
X52436002Y-57821600D01*
G75*
G02*
X52686000Y-58071598I0J-249998D01*
G01*
X52686000Y-58971602D01*
G75*
G02*
X52436002Y-59221600I-249998J0D01*
G01*
X51910998Y-59221600D01*
G75*
G02*
X51661000Y-58971602I0J249998D01*
G01*
G37*
%TD*%
D10*
%TO.C,MX36*%
X243046250Y-98901250D03*
D11*
X240506250Y-103981250D03*
D10*
X236696250Y-101441250D03*
D12*
X235426250Y-103981250D03*
X245586250Y-103981250D03*
%TD*%
D10*
%TO.C,MX34*%
X204946250Y-98901250D03*
D11*
X202406250Y-103981250D03*
D10*
X198596250Y-101441250D03*
D12*
X197326250Y-103981250D03*
X207486250Y-103981250D03*
%TD*%
D10*
%TO.C,MX33*%
X185896250Y-98901250D03*
D11*
X183356250Y-103981250D03*
D10*
X179546250Y-101441250D03*
D12*
X178276250Y-103981250D03*
X188436250Y-103981250D03*
%TD*%
D10*
%TO.C,MX32*%
X166846250Y-98901250D03*
D11*
X164306250Y-103981250D03*
D10*
X160496250Y-101441250D03*
D12*
X159226250Y-103981250D03*
X169386250Y-103981250D03*
%TD*%
D10*
%TO.C,MX31*%
X147796250Y-98901250D03*
D11*
X145256250Y-103981250D03*
D10*
X141446250Y-101441250D03*
D12*
X140176250Y-103981250D03*
X150336250Y-103981250D03*
%TD*%
D10*
%TO.C,MX30*%
X128746250Y-98901250D03*
D11*
X126206250Y-103981250D03*
D10*
X122396250Y-101441250D03*
D12*
X121126250Y-103981250D03*
X131286250Y-103981250D03*
%TD*%
D10*
%TO.C,MX29*%
X109696250Y-98901250D03*
D11*
X107156250Y-103981250D03*
D10*
X103346250Y-101441250D03*
D12*
X102076250Y-103981250D03*
X112236250Y-103981250D03*
%TD*%
D10*
%TO.C,MX28*%
X90646250Y-98901250D03*
D11*
X88106250Y-103981250D03*
D10*
X84296250Y-101441250D03*
D12*
X83026250Y-103981250D03*
X93186250Y-103981250D03*
%TD*%
D10*
%TO.C,MX27*%
X71596250Y-98901250D03*
D11*
X69056250Y-103981250D03*
D10*
X65246250Y-101441250D03*
D12*
X63976250Y-103981250D03*
X74136250Y-103981250D03*
%TD*%
D10*
%TO.C,MX24*%
X233521250Y-79851250D03*
D11*
X230981250Y-84931250D03*
D10*
X227171250Y-82391250D03*
D12*
X225901250Y-84931250D03*
X236061250Y-84931250D03*
%TD*%
D10*
%TO.C,MX22*%
X195421250Y-79851250D03*
D11*
X192881250Y-84931250D03*
D10*
X189071250Y-82391250D03*
D12*
X187801250Y-84931250D03*
X197961250Y-84931250D03*
%TD*%
D10*
%TO.C,MX21*%
X176371250Y-79851250D03*
D11*
X173831250Y-84931250D03*
D10*
X170021250Y-82391250D03*
D12*
X168751250Y-84931250D03*
X178911250Y-84931250D03*
%TD*%
D10*
%TO.C,MX20*%
X157321250Y-79851250D03*
D11*
X154781250Y-84931250D03*
D10*
X150971250Y-82391250D03*
D12*
X149701250Y-84931250D03*
X159861250Y-84931250D03*
%TD*%
D10*
%TO.C,MX19*%
X138271250Y-79851250D03*
D11*
X135731250Y-84931250D03*
D10*
X131921250Y-82391250D03*
D12*
X130651250Y-84931250D03*
X140811250Y-84931250D03*
%TD*%
D10*
%TO.C,MX18*%
X119221250Y-79851250D03*
D11*
X116681250Y-84931250D03*
D10*
X112871250Y-82391250D03*
D12*
X111601250Y-84931250D03*
X121761250Y-84931250D03*
%TD*%
D10*
%TO.C,MX17*%
X100171250Y-79851250D03*
D11*
X97631250Y-84931250D03*
D10*
X93821250Y-82391250D03*
D12*
X92551250Y-84931250D03*
X102711250Y-84931250D03*
%TD*%
D10*
%TO.C,MX16*%
X81121250Y-79851250D03*
D11*
X78581250Y-84931250D03*
D10*
X74771250Y-82391250D03*
D12*
X73501250Y-84931250D03*
X83661250Y-84931250D03*
%TD*%
D10*
%TO.C,MX15*%
X62071250Y-79851250D03*
D11*
X59531250Y-84931250D03*
D10*
X55721250Y-82391250D03*
D12*
X54451250Y-84931250D03*
X64611250Y-84931250D03*
%TD*%
D10*
%TO.C,MX11*%
X228758750Y-60801250D03*
D11*
X226218750Y-65881250D03*
D10*
X222408750Y-63341250D03*
D12*
X221138750Y-65881250D03*
X231298750Y-65881250D03*
%TD*%
D10*
%TO.C,MX9*%
X190658750Y-60801250D03*
D11*
X188118750Y-65881250D03*
D10*
X184308750Y-63341250D03*
D12*
X183038750Y-65881250D03*
X193198750Y-65881250D03*
%TD*%
D10*
%TO.C,MX8*%
X171608750Y-60801250D03*
D11*
X169068750Y-65881250D03*
D10*
X165258750Y-63341250D03*
D12*
X163988750Y-65881250D03*
X174148750Y-65881250D03*
%TD*%
D10*
%TO.C,MX7*%
X152558750Y-60801250D03*
D11*
X150018750Y-65881250D03*
D10*
X146208750Y-63341250D03*
D12*
X144938750Y-65881250D03*
X155098750Y-65881250D03*
%TD*%
D10*
%TO.C,MX6*%
X133508750Y-60801250D03*
D11*
X130968750Y-65881250D03*
D10*
X127158750Y-63341250D03*
D12*
X125888750Y-65881250D03*
X136048750Y-65881250D03*
%TD*%
D10*
%TO.C,MX5*%
X114458750Y-60801250D03*
D11*
X111918750Y-65881250D03*
D10*
X108108750Y-63341250D03*
D12*
X106838750Y-65881250D03*
X116998750Y-65881250D03*
%TD*%
D10*
%TO.C,MX4*%
X95408750Y-60801250D03*
D11*
X92868750Y-65881250D03*
D10*
X89058750Y-63341250D03*
D12*
X87788750Y-65881250D03*
X97948750Y-65881250D03*
%TD*%
D10*
%TO.C,MX3*%
X76358750Y-60801250D03*
D11*
X73818750Y-65881250D03*
D10*
X70008750Y-63341250D03*
D12*
X68738750Y-65881250D03*
X78898750Y-65881250D03*
%TD*%
D10*
%TO.C,MX2*%
X57308750Y-60801250D03*
D11*
X54768750Y-65881250D03*
D10*
X50958750Y-63341250D03*
D12*
X49688750Y-65881250D03*
X59848750Y-65881250D03*
%TD*%
D10*
%TO.C,MX1*%
X38258750Y-60801250D03*
D11*
X35718750Y-65881250D03*
D10*
X31908750Y-63341250D03*
D12*
X30638750Y-65881250D03*
X40798750Y-65881250D03*
%TD*%
%TO.C,F1*%
G36*
G01*
X65037000Y-71745000D02*
X65037000Y-70495000D01*
G75*
G02*
X65287000Y-70245000I250000J0D01*
G01*
X66037000Y-70245000D01*
G75*
G02*
X66287000Y-70495000I0J-250000D01*
G01*
X66287000Y-71745000D01*
G75*
G02*
X66037000Y-71995000I-250000J0D01*
G01*
X65287000Y-71995000D01*
G75*
G02*
X65037000Y-71745000I0J250000D01*
G01*
G37*
G36*
G01*
X62237000Y-71745000D02*
X62237000Y-70495000D01*
G75*
G02*
X62487000Y-70245000I250000J0D01*
G01*
X63237000Y-70245000D01*
G75*
G02*
X63487000Y-70495000I0J-250000D01*
G01*
X63487000Y-71745000D01*
G75*
G02*
X63237000Y-71995000I-250000J0D01*
G01*
X62487000Y-71995000D01*
G75*
G02*
X62237000Y-71745000I0J250000D01*
G01*
G37*
%TD*%
%TO.C,C6*%
G36*
G01*
X48533073Y-89552678D02*
X47861322Y-88880927D01*
G75*
G02*
X47861322Y-88527373I176777J176777D01*
G01*
X48214875Y-88173820D01*
G75*
G02*
X48568429Y-88173820I176777J-176777D01*
G01*
X49240180Y-88845571D01*
G75*
G02*
X49240180Y-89199125I-176777J-176777D01*
G01*
X48886627Y-89552678D01*
G75*
G02*
X48533073Y-89552678I-176777J176777D01*
G01*
G37*
G36*
G01*
X47189571Y-90896180D02*
X46517820Y-90224429D01*
G75*
G02*
X46517820Y-89870875I176777J176777D01*
G01*
X46871373Y-89517322D01*
G75*
G02*
X47224927Y-89517322I176777J-176777D01*
G01*
X47896678Y-90189073D01*
G75*
G02*
X47896678Y-90542627I-176777J-176777D01*
G01*
X47543125Y-90896180D01*
G75*
G02*
X47189571Y-90896180I-176777J176777D01*
G01*
G37*
%TD*%
%TO.C,C5*%
G36*
G01*
X50985000Y-100871000D02*
X50985000Y-101821000D01*
G75*
G02*
X50735000Y-102071000I-250000J0D01*
G01*
X50235000Y-102071000D01*
G75*
G02*
X49985000Y-101821000I0J250000D01*
G01*
X49985000Y-100871000D01*
G75*
G02*
X50235000Y-100621000I250000J0D01*
G01*
X50735000Y-100621000D01*
G75*
G02*
X50985000Y-100871000I0J-250000D01*
G01*
G37*
G36*
G01*
X52885000Y-100871000D02*
X52885000Y-101821000D01*
G75*
G02*
X52635000Y-102071000I-250000J0D01*
G01*
X52135000Y-102071000D01*
G75*
G02*
X51885000Y-101821000I0J250000D01*
G01*
X51885000Y-100871000D01*
G75*
G02*
X52135000Y-100621000I250000J0D01*
G01*
X52635000Y-100621000D01*
G75*
G02*
X52885000Y-100871000I0J-250000D01*
G01*
G37*
%TD*%
%TO.C,C3*%
G36*
G01*
X54119678Y-87229927D02*
X53447927Y-87901678D01*
G75*
G02*
X53094373Y-87901678I-176777J176777D01*
G01*
X52740820Y-87548125D01*
G75*
G02*
X52740820Y-87194571I176777J176777D01*
G01*
X53412571Y-86522820D01*
G75*
G02*
X53766125Y-86522820I176777J-176777D01*
G01*
X54119678Y-86876373D01*
G75*
G02*
X54119678Y-87229927I-176777J-176777D01*
G01*
G37*
G36*
G01*
X55463180Y-88573429D02*
X54791429Y-89245180D01*
G75*
G02*
X54437875Y-89245180I-176777J176777D01*
G01*
X54084322Y-88891627D01*
G75*
G02*
X54084322Y-88538073I176777J176777D01*
G01*
X54756073Y-87866322D01*
G75*
G02*
X55109627Y-87866322I176777J-176777D01*
G01*
X55463180Y-88219875D01*
G75*
G02*
X55463180Y-88573429I-176777J-176777D01*
G01*
G37*
%TD*%
%TO.C,C2*%
G36*
G01*
X47986927Y-93352676D02*
X47315176Y-94024427D01*
G75*
G02*
X46961622Y-94024427I-176777J176777D01*
G01*
X46608069Y-93670874D01*
G75*
G02*
X46608069Y-93317320I176777J176777D01*
G01*
X47279820Y-92645569D01*
G75*
G02*
X47633374Y-92645569I176777J-176777D01*
G01*
X47986927Y-92999122D01*
G75*
G02*
X47986927Y-93352676I-176777J-176777D01*
G01*
G37*
G36*
G01*
X49330429Y-94696178D02*
X48658678Y-95367929D01*
G75*
G02*
X48305124Y-95367929I-176777J176777D01*
G01*
X47951571Y-95014376D01*
G75*
G02*
X47951571Y-94660822I176777J176777D01*
G01*
X48623322Y-93989071D01*
G75*
G02*
X48976876Y-93989071I176777J-176777D01*
G01*
X49330429Y-94342624D01*
G75*
G02*
X49330429Y-94696178I-176777J-176777D01*
G01*
G37*
%TD*%
%TO.C,C1*%
G36*
G01*
X40571000Y-92489000D02*
X40571000Y-93439000D01*
G75*
G02*
X40321000Y-93689000I-250000J0D01*
G01*
X39821000Y-93689000D01*
G75*
G02*
X39571000Y-93439000I0J250000D01*
G01*
X39571000Y-92489000D01*
G75*
G02*
X39821000Y-92239000I250000J0D01*
G01*
X40321000Y-92239000D01*
G75*
G02*
X40571000Y-92489000I0J-250000D01*
G01*
G37*
G36*
G01*
X42471000Y-92489000D02*
X42471000Y-93439000D01*
G75*
G02*
X42221000Y-93689000I-250000J0D01*
G01*
X41721000Y-93689000D01*
G75*
G02*
X41471000Y-93439000I0J250000D01*
G01*
X41471000Y-92489000D01*
G75*
G02*
X41721000Y-92239000I250000J0D01*
G01*
X42221000Y-92239000D01*
G75*
G02*
X42471000Y-92489000I0J-250000D01*
G01*
G37*
%TD*%
M02*
